<svg id="svg" xmlns="http://www.w3.org/2000/svg" xmlns:xlink="http://www.w3.org/1999/xlink" width="400" height="421.0526315789474" viewBox="0, 0, 400,421.0526315789474"><g id="svgg"><path id="path0" d="M81.619 123.863 C 81.619 124.292,81.729 124.691,81.862 124.750 C 81.996 124.810,82.459 125.733,82.891 126.802 C 83.440 128.160,84.279 129.354,85.678 130.769 C 86.779 131.883,87.599 132.794,87.501 132.794 C 87.403 132.794,88.041 133.249,88.918 133.805 C 89.796 134.362,90.662 135.004,90.844 135.233 C 91.238 135.729,94.753 137.976,95.135 137.976 C 95.281 137.976,96.454 138.631,97.741 139.432 C 99.028 140.233,100.081 140.799,100.081 140.690 C 100.081 140.581,100.440 140.728,100.879 141.015 C 101.318 141.303,101.842 141.538,102.044 141.538 C 102.245 141.538,102.833 141.840,103.351 142.208 C 103.868 142.577,104.291 142.779,104.291 142.657 C 104.291 142.535,104.656 142.674,105.101 142.966 C 105.547 143.258,105.911 143.409,105.911 143.301 C 105.911 143.193,106.421 143.420,107.045 143.806 C 107.668 144.191,108.178 144.404,108.178 144.278 C 108.178 144.153,108.397 144.232,108.664 144.453 C 108.931 144.675,109.150 144.761,109.150 144.644 C 109.150 144.526,109.478 144.613,109.879 144.835 C 110.279 145.058,110.680 145.252,110.769 145.265 C 110.991 145.300,113.409 146.079,114.008 146.308 C 114.275 146.411,114.689 146.535,114.928 146.583 C 115.167 146.632,115.459 146.770,115.576 146.889 C 115.694 147.008,115.571 147.062,115.304 147.007 C 115.036 146.953,114.526 147.066,114.170 147.258 C 113.814 147.451,113.239 147.563,112.893 147.508 C 112.547 147.453,112.121 147.496,111.946 147.604 C 111.771 147.712,111.253 147.836,110.794 147.879 C 109.403 148.012,107.102 148.329,106.073 148.531 C 105.538 148.636,104.518 148.771,103.806 148.833 C 103.093 148.894,102.510 148.975,102.510 149.013 C 102.510 149.051,101.709 149.112,100.729 149.149 C 99.749 149.186,98.497 149.317,97.946 149.440 C 96.813 149.694,93.770 149.752,92.794 149.538 C 92.437 149.460,91.910 149.518,91.622 149.666 C 91.333 149.815,90.993 149.833,90.866 149.705 C 90.739 149.578,90.173 149.451,89.609 149.423 C 89.045 149.395,88.583 149.345,88.583 149.311 C 88.583 149.278,88.000 149.207,87.287 149.154 C 86.575 149.101,85.773 149.006,85.506 148.942 C 84.434 148.686,84.794 150.402,86.064 151.596 C 87.282 152.741,93.603 156.920,93.603 156.579 C 93.603 156.481,94.004 156.616,94.494 156.879 C 95.650 157.500,96.523 157.823,98.057 158.194 C 98.368 158.269,98.660 158.360,98.704 158.396 C 98.798 158.472,98.930 158.510,100.243 158.839 C 100.777 158.973,101.433 159.165,101.700 159.266 C 101.968 159.367,102.478 159.498,102.834 159.558 C 103.190 159.617,103.992 159.766,104.615 159.889 C 105.239 160.011,106.004 160.141,106.316 160.177 C 106.628 160.213,106.919 160.272,106.964 160.308 C 107.189 160.490,108.559 160.669,110.484 160.769 C 111.663 160.831,112.756 160.957,112.913 161.050 C 113.070 161.142,113.878 161.183,114.709 161.139 C 115.539 161.096,116.414 161.184,116.652 161.335 C 116.982 161.544,116.946 161.611,116.503 161.614 C 116.183 161.617,115.563 162.005,115.126 162.476 C 114.689 162.948,114.332 163.236,114.332 163.118 C 114.332 162.999,113.785 163.169,113.117 163.496 C 112.449 163.822,111.684 164.075,111.417 164.058 C 111.150 164.041,110.834 164.167,110.714 164.339 C 110.595 164.510,110.230 164.688,109.904 164.733 C 109.266 164.821,108.117 165.086,107.854 165.207 C 107.765 165.248,107.547 165.302,107.368 165.327 C 107.190 165.353,106.753 165.523,106.397 165.705 C 106.040 165.887,105.457 166.026,105.101 166.014 C 104.507 165.994,103.679 166.661,103.654 167.180 C 103.642 167.430,105.862 168.848,106.472 168.980 C 107.361 169.172,108.020 169.346,108.097 169.408 C 108.142 169.444,108.287 169.498,108.421 169.529 C 108.979 169.655,111.268 170.155,111.417 170.182 C 111.506 170.199,111.725 170.292,111.903 170.390 C 112.714 170.834,120.082 170.408,122.331 169.786 C 123.613 169.432,124.742 169.223,124.841 169.321 C 124.940 169.420,125.020 169.355,125.020 169.177 C 125.020 168.999,125.202 168.846,125.425 168.837 C 125.648 168.829,126.066 168.723,126.355 168.603 C 126.685 168.465,126.952 168.572,127.074 168.888 C 127.180 169.166,127.140 169.393,126.984 169.393 C 125.427 169.393,128.261 175.135,130.428 176.371 C 130.997 176.695,131.404 177.056,131.333 177.171 C 131.261 177.287,131.378 177.383,131.593 177.385 C 131.808 177.387,132.782 177.881,133.757 178.483 C 134.733 179.086,135.680 179.611,135.862 179.651 C 136.045 179.691,136.632 179.812,137.166 179.921 C 137.700 180.030,138.466 180.332,138.866 180.593 C 139.267 180.854,139.595 180.995,139.595 180.906 C 139.595 180.817,139.996 180.905,140.486 181.100 C 140.976 181.296,141.668 181.482,142.024 181.513 C 142.381 181.545,143.036 181.776,143.482 182.027 C 143.927 182.278,144.729 182.538,145.263 182.605 C 146.549 182.766,146.689 182.958,145.910 183.497 C 144.782 184.279,143.767 185.426,143.855 185.820 C 143.887 185.959,143.817 186.437,143.700 186.883 C 143.024 189.470,143.480 190.982,145.617 193.241 C 146.868 194.564,151.257 197.571,151.937 197.571 C 152.130 197.571,152.712 197.872,153.229 198.241 C 153.747 198.609,154.170 198.819,154.170 198.708 C 154.170 198.597,154.571 198.715,155.061 198.971 C 155.551 199.226,156.316 199.579,156.761 199.755 C 158.229 200.335,159.179 200.718,160.000 201.061 C 161.762 201.796,162.288 201.951,163.887 202.208 C 164.154 202.251,164.518 202.372,164.696 202.478 C 164.874 202.583,165.276 202.628,165.589 202.578 C 165.901 202.527,166.069 202.629,165.961 202.803 C 165.853 202.977,165.688 203.043,165.593 202.948 C 165.498 202.853,165.112 202.945,164.735 203.153 C 164.357 203.360,163.538 203.551,162.915 203.578 C 162.291 203.604,161.417 203.730,160.972 203.858 C 160.526 203.985,159.725 204.143,159.190 204.208 C 158.656 204.273,157.820 204.400,157.333 204.489 C 156.846 204.578,156.360 204.509,156.252 204.334 C 156.132 204.141,155.909 204.132,155.680 204.313 C 155.473 204.475,154.794 204.620,154.170 204.634 C 151.072 204.704,145.696 205.106,144.615 205.348 C 144.437 205.388,144.219 205.388,144.130 205.349 C 144.040 205.309,140.372 205.235,135.978 205.184 C 131.584 205.133,127.841 205.000,127.661 204.889 C 127.480 204.777,127.261 204.801,127.174 204.941 C 127.011 205.206,119.760 205.200,119.293 204.935 C 119.147 204.852,117.279 204.808,115.142 204.836 C 113.004 204.865,111.132 204.828,110.982 204.754 C 110.832 204.681,108.573 204.557,105.962 204.480 C 98.497 204.258,97.676 204.209,97.269 203.954 C 97.059 203.822,96.795 203.863,96.683 204.044 C 96.570 204.226,96.103 204.281,95.644 204.165 C 95.185 204.050,93.773 203.923,92.506 203.884 C 91.239 203.844,90.202 203.783,90.202 203.747 C 90.202 203.712,88.599 203.621,86.640 203.546 C 80.672 203.317,71.741 202.847,71.741 202.762 C 71.741 202.728,70.356 202.634,68.664 202.554 C 62.639 202.267,61.053 202.174,61.053 202.109 C 61.053 202.073,59.814 202.018,58.300 201.987 C 56.785 201.956,55.374 201.822,55.164 201.689 C 54.954 201.556,54.689 201.597,54.575 201.781 C 54.461 201.965,54.204 202.015,54.004 201.891 C 53.804 201.767,52.976 201.627,52.164 201.579 C 51.353 201.531,49.304 201.415,47.611 201.320 C 45.919 201.226,44.534 201.131,44.534 201.109 C 44.534 201.087,43.117 201.019,41.386 200.958 L 38.237 200.846 37.559 201.797 C 37.187 202.321,36.973 202.895,37.084 203.075 C 37.195 203.254,37.154 203.401,36.994 203.401 C 36.834 203.401,36.518 204.239,36.292 205.263 C 36.066 206.287,35.796 207.344,35.692 207.611 C 35.588 207.879,35.481 208.243,35.454 208.421 C 35.427 208.599,35.232 209.166,35.021 209.681 C 34.810 210.195,34.708 210.686,34.793 210.772 C 34.879 210.857,34.739 211.138,34.482 211.395 C 34.225 211.652,34.028 212.399,34.045 213.056 C 34.062 213.713,33.835 215.126,33.540 216.194 C 33.246 217.263,32.933 218.721,32.846 219.433 C 32.759 220.146,32.553 221.166,32.387 221.700 C 32.222 222.235,32.092 223.109,32.098 223.644 C 32.104 224.178,32.021 224.980,31.914 225.425 C 31.806 225.870,31.650 227.182,31.566 228.340 C 31.483 229.498,31.282 231.611,31.120 233.036 C 30.455 238.875,30.693 247.930,31.606 251.498 C 31.879 252.567,32.147 253.660,32.201 253.927 C 32.323 254.535,32.618 255.352,33.307 256.994 C 33.603 257.700,33.827 258.356,33.803 258.451 C 33.780 258.546,34.217 259.259,34.775 260.036 C 35.702 261.328,36.094 262.918,35.584 263.320 C 35.471 263.409,35.291 264.065,35.184 264.777 C 35.076 265.490,34.829 266.947,34.635 268.016 C 34.441 269.085,34.226 270.969,34.157 272.203 C 34.089 273.437,33.969 274.615,33.890 274.821 C 33.534 275.747,34.940 281.697,35.992 283.719 C 37.007 285.667,37.358 286.169,38.776 287.692 C 39.439 288.405,40.654 288.424,41.202 287.730 C 41.615 287.207,45.997 282.786,47.168 281.712 C 48.364 280.614,49.068 279.769,48.998 279.513 C 48.959 279.369,49.130 279.174,49.378 279.079 C 49.817 278.910,50.456 280.108,50.733 281.619 C 50.798 281.976,50.991 282.559,51.162 282.915 C 51.332 283.271,51.937 284.802,52.505 286.316 C 53.074 287.830,53.627 289.142,53.733 289.231 C 54.115 289.550,56.189 293.933,56.095 294.221 C 56.042 294.383,56.129 294.602,56.289 294.707 C 56.449 294.813,57.200 296.065,57.959 297.490 C 58.717 298.915,59.522 300.187,59.748 300.316 C 59.973 300.446,60.351 301.029,60.587 301.612 C 60.823 302.195,61.120 302.745,61.248 302.835 C 61.376 302.925,62.290 304.237,63.279 305.750 C 64.268 307.264,65.204 308.652,65.360 308.836 C 65.674 309.207,67.262 311.427,68.016 312.549 C 68.283 312.946,68.866 313.751,69.312 314.336 C 69.757 314.922,70.413 315.803,70.769 316.296 C 71.741 317.637,75.050 321.669,75.937 322.591 C 77.742 324.468,78.296 324.790,80.152 325.036 C 86.847 325.922,89.691 326.214,92.146 326.264 C 93.749 326.297,95.206 326.404,95.385 326.502 C 95.824 326.744,98.584 326.640,99.030 326.365 C 99.227 326.243,99.469 326.274,99.568 326.433 C 99.762 326.748,101.414 326.693,101.963 326.353 C 102.150 326.238,102.396 326.294,102.510 326.478 C 102.624 326.662,102.874 326.715,103.067 326.596 C 103.259 326.477,104.452 326.318,105.716 326.244 C 108.784 326.062,110.216 325.944,110.607 325.841 C 110.785 325.794,111.077 325.721,111.255 325.680 C 111.433 325.639,111.652 325.574,111.741 325.536 C 111.830 325.499,112.413 325.415,113.036 325.350 C 115.242 325.121,117.101 324.875,118.381 324.644 C 119.887 324.373,119.613 324.438,121.454 323.912 C 122.253 323.683,123.419 323.439,124.045 323.370 C 126.752 323.069,127.949 322.827,128.531 322.464 C 128.903 322.232,130.300 321.800,132.955 321.097 C 133.312 321.003,133.822 320.897,134.089 320.862 C 134.356 320.826,134.866 320.645,135.223 320.458 C 135.579 320.272,136.089 320.138,136.356 320.160 C 136.623 320.183,137.047 320.047,137.297 319.858 C 137.547 319.669,137.984 319.512,138.268 319.509 C 138.553 319.506,139.004 319.365,139.271 319.194 C 139.779 318.871,139.810 318.861,141.370 318.540 C 141.900 318.430,142.421 318.201,142.527 318.029 C 142.633 317.858,143.037 317.648,143.425 317.563 C 143.812 317.478,144.404 317.348,144.739 317.273 C 145.075 317.198,145.949 316.831,146.683 316.457 C 147.416 316.082,148.016 315.869,148.016 315.982 C 148.016 316.095,148.391 315.942,148.850 315.642 C 149.309 315.341,149.984 315.037,150.352 314.967 C 150.719 314.896,151.291 314.592,151.623 314.292 C 151.955 313.991,152.227 313.847,152.227 313.972 C 152.227 314.096,152.859 313.827,153.632 313.374 C 154.404 312.921,155.261 312.551,155.535 312.551 C 155.810 312.551,156.214 312.334,156.434 312.068 C 156.654 311.803,156.965 311.667,157.124 311.765 C 157.283 311.863,157.501 311.716,157.608 311.438 C 157.715 311.159,157.987 310.931,158.212 310.931 C 158.727 310.931,161.725 309.626,161.943 309.307 C 162.032 309.177,163.490 308.359,165.182 307.491 C 166.874 306.622,168.332 305.821,168.421 305.712 C 168.510 305.602,169.239 305.184,170.040 304.784 C 170.842 304.383,171.962 303.708,172.529 303.283 C 173.096 302.858,173.788 302.510,174.067 302.510 C 174.347 302.510,174.575 302.357,174.575 302.170 C 174.575 301.982,175.049 301.620,175.628 301.365 C 176.206 301.109,177.263 300.463,177.976 299.929 C 178.688 299.395,179.599 298.787,180.000 298.577 C 180.401 298.367,180.729 298.065,180.729 297.905 C 180.729 297.745,180.874 297.704,181.053 297.814 C 181.231 297.924,181.377 297.851,181.377 297.652 C 181.377 297.453,181.522 297.380,181.700 297.490 C 181.879 297.600,182.024 297.545,182.024 297.367 C 182.024 297.190,182.753 296.648,183.644 296.163 C 184.534 295.678,185.263 295.150,185.263 294.990 C 185.263 294.830,185.409 294.789,185.587 294.899 C 185.765 295.009,185.911 294.976,185.911 294.826 C 185.911 294.676,186.374 294.279,186.940 293.945 C 187.505 293.611,188.253 293.106,188.601 292.822 C 188.950 292.539,189.857 291.798,190.619 291.174 C 192.988 289.234,193.500 288.856,194.245 288.503 C 194.642 288.315,195.056 287.880,195.165 287.538 C 195.274 287.195,195.438 286.990,195.530 287.082 C 195.622 287.174,196.081 286.893,196.550 286.459 C 197.019 286.024,197.583 285.668,197.804 285.668 C 198.024 285.668,198.921 284.976,199.796 284.130 C 201.627 282.358,202.318 281.781,202.607 281.781 C 202.720 281.781,203.555 281.054,204.464 280.164 C 205.372 279.275,206.379 278.463,206.701 278.361 C 207.024 278.259,207.287 278.072,207.287 277.945 C 207.287 277.819,207.725 277.236,208.259 276.651 C 208.794 276.066,209.231 275.679,209.231 275.790 C 209.231 276.018,210.371 274.987,212.966 272.412 C 213.940 271.446,214.737 270.759,214.737 270.887 C 214.737 271.128,215.456 270.595,216.129 269.855 C 216.734 269.190,217.563 268.375,218.033 267.984 C 218.269 267.788,218.899 267.079,219.433 266.409 C 219.968 265.738,220.604 265.024,220.847 264.822 C 221.090 264.619,221.673 264.031,222.143 263.514 C 222.612 262.997,223.953 261.612,225.122 260.437 C 226.292 259.261,227.393 258.042,227.568 257.727 C 228.095 256.780,229.306 256.777,230.914 257.719 C 231.725 258.195,232.462 258.567,232.551 258.546 C 232.640 258.526,233.186 258.802,233.765 259.159 C 234.344 259.517,234.818 259.715,234.818 259.600 C 234.818 259.484,235.255 259.700,235.789 260.081 C 236.324 260.462,236.761 260.682,236.761 260.571 C 236.761 260.459,237.162 260.577,237.652 260.833 C 239.245 261.664,241.197 262.417,242.672 262.769 C 242.895 262.822,243.405 263.045,243.806 263.266 C 244.206 263.486,244.534 263.571,244.534 263.454 C 244.534 263.336,244.720 263.395,244.947 263.583 C 245.174 263.772,245.721 263.986,246.162 264.059 C 246.603 264.132,247.182 264.275,247.449 264.377 C 248.212 264.666,249.825 265.046,250.418 265.075 C 250.715 265.089,251.067 265.211,251.201 265.344 C 251.335 265.478,251.833 265.587,252.308 265.587 C 252.783 265.587,253.281 265.696,253.414 265.830 C 253.548 265.964,253.937 266.091,254.278 266.113 C 254.619 266.136,254.935 266.187,254.980 266.226 C 255.024 266.266,255.425 266.340,255.870 266.391 C 256.316 266.442,257.482 266.583,258.462 266.705 C 259.441 266.827,261.954 266.980,264.045 267.045 C 266.136 267.110,267.958 267.227,268.093 267.305 C 268.229 267.383,268.631 267.400,268.987 267.343 C 269.813 267.212,273.226 266.813,274.494 266.701 C 275.028 266.653,275.466 266.586,275.466 266.552 C 275.466 266.518,275.903 266.445,276.437 266.389 C 277.387 266.291,278.704 266.012,278.704 265.909 C 278.704 265.838,279.774 265.643,281.080 265.476 C 281.674 265.400,282.312 265.186,282.498 265.000 C 282.709 264.789,283.114 264.769,283.582 264.947 C 284.037 265.120,284.370 265.109,284.433 264.920 C 284.490 264.749,284.879 264.543,285.297 264.462 C 285.716 264.382,286.239 264.166,286.460 263.983 C 286.680 263.799,286.944 263.733,287.046 263.834 C 287.148 263.936,287.576 263.793,287.998 263.517 C 288.420 263.240,289.643 262.734,290.716 262.391 C 291.789 262.048,293.169 261.462,293.783 261.088 C 294.397 260.713,295.300 260.407,295.789 260.406 C 296.279 260.405,296.680 260.251,296.680 260.062 C 296.680 259.873,296.815 259.802,296.981 259.905 C 297.146 260.007,297.375 259.795,297.490 259.433 C 297.605 259.072,297.834 258.860,297.999 258.962 C 298.164 259.064,298.300 258.985,298.300 258.785 C 298.300 258.586,298.445 258.513,298.623 258.623 C 298.802 258.734,298.947 258.645,298.947 258.427 C 298.947 258.208,299.036 258.118,299.144 258.226 C 299.252 258.334,299.638 258.145,300.003 257.805 C 300.367 257.466,300.777 257.258,300.914 257.342 C 301.050 257.427,301.393 257.265,301.674 256.984 C 301.956 256.702,302.188 256.592,302.191 256.738 C 302.194 256.884,302.303 256.846,302.434 256.652 C 302.565 256.459,303.401 255.885,304.291 255.379 C 305.902 254.462,306.234 254.222,307.594 252.988 C 307.985 252.633,308.758 252.108,309.312 251.822 C 310.292 251.315,310.550 251.113,312.463 249.361 C 312.968 248.898,313.695 248.352,314.078 248.147 C 314.461 247.942,314.864 247.490,314.974 247.142 C 315.085 246.795,315.359 246.581,315.583 246.668 C 315.808 246.754,316.190 246.455,316.431 246.003 C 316.673 245.552,316.962 245.182,317.074 245.182 C 317.651 245.182,325.222 237.178,326.061 235.681 C 326.278 235.296,326.462 235.126,326.471 235.304 C 326.480 235.482,326.621 235.417,326.784 235.160 C 327.146 234.587,328.597 232.823,329.798 231.496 C 330.287 230.954,330.688 230.409,330.688 230.283 C 330.688 230.158,331.089 229.608,331.579 229.061 C 332.848 227.644,333.028 227.394,334.070 225.587 C 334.584 224.696,335.097 223.895,335.210 223.806 C 335.323 223.717,335.836 222.917,336.349 222.029 C 336.862 221.141,337.409 220.267,337.563 220.086 C 340.252 216.939,341.496 213.549,340.042 213.329 C 339.796 213.292,339.449 213.175,339.271 213.069 C 339.093 212.963,338.392 212.903,337.713 212.934 C 337.035 212.966,336.401 212.865,336.305 212.710 C 336.209 212.555,335.744 212.452,335.272 212.483 C 334.799 212.513,334.304 212.505,334.170 212.463 C 334.036 212.422,333.672 212.362,333.360 212.329 C 333.049 212.296,332.211 212.170,331.498 212.048 C 330.183 211.824,327.757 211.496,325.992 211.303 C 324.801 211.173,322.860 210.918,321.134 210.666 C 320.421 210.563,319.327 210.446,318.703 210.408 C 318.078 210.370,317.386 210.227,317.165 210.090 C 316.944 209.953,315.779 209.783,314.576 209.712 C 312.708 209.602,309.390 209.175,307.692 208.826 C 307.425 208.772,307.034 208.619,306.824 208.488 C 306.614 208.356,306.354 208.390,306.247 208.564 C 306.140 208.737,305.875 208.811,305.658 208.728 C 305.441 208.646,304.680 208.518,303.968 208.446 C 303.255 208.373,302.672 208.290,302.672 208.261 C 302.672 208.116,301.248 207.903,300.319 207.909 C 299.738 207.913,298.881 207.771,298.414 207.593 C 297.345 207.187,296.448 207.461,296.190 208.274 C 296.080 208.620,295.811 209.086,295.592 209.310 C 294.979 209.936,292.794 213.642,292.794 214.055 C 292.794 214.256,292.065 215.146,291.174 216.032 C 290.283 216.918,289.553 217.755,289.551 217.890 C 289.548 218.026,288.965 218.763,288.255 219.528 C 287.545 220.293,286.964 221.041,286.964 221.191 C 286.964 221.341,286.563 221.725,286.073 222.045 C 285.583 222.364,284.526 223.292,283.725 224.106 C 282.923 224.921,281.903 225.840,281.457 226.150 C 281.012 226.459,280.030 227.152,279.274 227.688 C 278.519 228.225,277.753 228.664,277.574 228.664 C 277.394 228.664,277.247 228.798,277.247 228.961 C 277.247 229.124,276.583 229.512,275.772 229.821 C 274.961 230.131,274.123 230.625,273.910 230.919 C 273.697 231.213,272.684 231.714,271.661 232.032 C 270.637 232.350,269.721 232.736,269.626 232.890 C 269.531 233.044,269.258 233.095,269.019 233.004 C 268.781 232.912,268.382 233.041,268.133 233.290 C 267.884 233.538,267.319 233.825,266.877 233.927 C 266.435 234.029,265.709 234.205,265.263 234.318 C 264.818 234.432,263.870 234.583,263.158 234.655 C 262.445 234.726,261.789 234.810,261.700 234.840 C 261.611 234.870,261.414 234.872,261.261 234.845 C 261.109 234.817,260.794 234.953,260.562 235.146 C 260.268 235.390,260.075 235.393,259.928 235.157 C 259.805 234.957,259.491 234.925,259.171 235.078 C 258.870 235.223,257.603 235.308,256.356 235.267 C 252.282 235.136,248.269 234.875,247.773 234.710 C 246.901 234.419,245.345 234.115,245.297 234.225 C 245.271 234.284,244.943 234.054,244.568 233.715 C 243.879 233.091,243.648 232.227,244.171 232.227 C 244.472 232.227,245.172 230.740,245.309 229.811 C 245.408 229.137,246.162 228.628,246.624 228.923 C 247.046 229.193,246.778 229.149,250.040 229.486 C 252.995 229.792,255.270 229.806,256.430 229.526 C 256.828 229.430,257.238 229.491,257.344 229.661 C 257.449 229.831,257.673 229.885,257.841 229.780 C 258.010 229.676,258.547 229.521,259.034 229.436 C 259.521 229.351,260.429 229.149,261.053 228.988 C 261.676 228.827,262.551 228.622,262.996 228.534 C 264.771 228.182,265.282 228.043,265.659 227.810 C 265.875 227.676,266.448 227.548,266.931 227.526 C 267.415 227.503,268.024 227.307,268.285 227.090 C 268.546 226.874,269.084 226.634,269.481 226.557 C 269.878 226.481,270.585 226.162,271.052 225.849 C 271.875 225.298,272.038 225.228,272.696 225.142 C 272.865 225.119,273.393 224.740,273.870 224.298 C 274.347 223.856,274.849 223.563,274.985 223.647 C 275.121 223.731,275.471 223.437,275.762 222.993 C 276.052 222.549,276.506 222.186,276.769 222.186 C 277.032 222.186,277.247 222.058,277.247 221.902 C 277.247 221.745,277.684 221.436,278.219 221.215 C 278.753 220.993,279.190 220.660,279.190 220.474 C 279.190 220.287,279.267 220.212,279.362 220.306 C 279.779 220.724,284.404 215.543,286.356 212.470 C 287.092 211.312,287.975 209.958,288.319 209.462 C 288.729 208.869,288.868 208.315,288.723 207.843 C 288.602 207.448,288.613 207.230,288.748 207.357 C 289.140 207.729,290.008 206.312,290.674 204.211 C 291.400 201.925,292.065 200.987,292.630 201.456 C 292.842 201.632,293.123 201.668,293.255 201.536 C 293.386 201.405,294.010 201.277,294.640 201.252 C 295.271 201.228,295.878 201.081,295.990 200.927 C 296.103 200.772,296.704 200.613,297.328 200.574 C 298.746 200.484,300.047 200.274,301.663 199.874 C 303.028 199.536,303.881 199.847,304.352 200.856 C 304.811 201.839,308.064 205.353,308.350 205.176 C 308.501 205.082,309.127 205.446,309.740 205.985 C 310.353 206.523,311.066 206.964,311.325 206.964 C 311.583 206.964,311.896 207.065,312.020 207.189 C 312.376 207.545,313.198 207.586,313.198 207.247 C 313.198 207.068,313.467 207.084,313.846 207.287 C 314.202 207.478,314.494 207.538,314.494 207.421 C 314.494 207.304,314.676 207.345,314.899 207.513 C 315.611 208.049,318.779 207.760,320.203 207.029 C 320.938 206.652,321.614 206.418,321.704 206.509 C 321.795 206.599,322.178 206.282,322.554 205.803 C 322.931 205.325,323.239 205.031,323.239 205.150 C 323.239 205.269,323.530 205.211,323.887 205.020 C 324.243 204.830,324.534 204.451,324.534 204.180 C 324.534 203.909,324.655 203.761,324.801 203.851 C 325.247 204.127,327.636 201.325,327.948 200.162 C 327.972 200.073,328.081 199.781,328.190 199.514 C 328.300 199.247,328.548 198.409,328.741 197.652 C 329.058 196.416,329.351 196.115,330.121 196.237 C 330.255 196.258,330.364 196.159,330.364 196.016 C 330.364 195.874,330.692 195.752,331.093 195.745 C 331.494 195.738,332.664 195.628,333.693 195.501 C 334.722 195.374,336.763 195.192,338.227 195.097 C 339.692 195.002,341.255 194.900,341.700 194.870 C 342.146 194.841,342.682 194.705,342.893 194.569 C 343.103 194.433,343.359 194.457,343.461 194.622 C 343.563 194.787,344.120 194.857,344.698 194.777 C 345.276 194.696,346.141 194.577,346.620 194.513 C 347.099 194.448,347.635 194.305,347.812 194.196 C 347.989 194.087,348.211 194.122,348.305 194.275 C 348.563 194.693,354.077 194.421,354.351 193.977 C 354.492 193.749,354.757 193.710,355.025 193.877 C 355.921 194.436,361.373 194.730,361.679 194.235 C 361.767 194.093,362.008 194.116,362.215 194.286 C 362.422 194.457,363.085 194.557,363.689 194.508 C 364.293 194.460,365.257 194.527,365.832 194.656 C 366.407 194.786,367.132 194.749,367.445 194.574 C 367.841 194.352,368.087 194.377,368.258 194.654 C 368.491 195.031,369.164 195.175,371.831 195.422 C 372.459 195.480,373.260 195.681,373.612 195.869 C 373.963 196.058,374.360 196.226,374.494 196.243 C 374.628 196.261,374.773 196.286,374.818 196.299 C 374.862 196.313,375.263 196.386,375.709 196.462 C 378.747 196.982,380.629 198.494,383.337 202.590 C 384.396 204.192,385.692 205.868,386.216 206.314 C 386.741 206.761,387.396 207.355,387.674 207.635 C 388.520 208.489,390.283 209.617,390.283 209.304 C 390.283 209.142,390.869 208.834,391.585 208.619 C 393.021 208.189,394.632 205.628,394.337 204.243 C 394.145 203.339,393.843 199.963,393.668 196.761 C 393.591 195.336,393.430 193.733,393.311 193.198 C 393.192 192.664,393.080 191.717,393.062 191.093 C 393.044 190.470,392.920 189.790,392.787 189.582 C 392.583 189.262,392.511 187.786,392.537 184.453 C 392.540 184.097,392.399 183.077,392.225 182.186 C 392.050 181.296,391.830 179.838,391.737 178.947 C 391.563 177.287,391.391 176.157,391.268 175.870 C 391.230 175.781,391.198 174.626,391.198 173.303 C 391.197 171.980,390.971 169.867,390.695 168.607 C 390.420 167.347,390.178 166.000,390.158 165.614 C 390.138 165.228,390.012 164.803,389.879 164.669 C 389.745 164.536,389.636 164.031,389.636 163.548 C 389.636 161.034,386.585 156.902,385.950 158.556 C 385.865 158.779,385.456 158.883,385.003 158.796 C 384.564 158.712,384.111 158.797,383.995 158.984 C 383.880 159.171,383.572 159.242,383.312 159.143 C 383.052 159.043,382.753 159.186,382.648 159.460 C 382.543 159.735,382.269 159.887,382.039 159.799 C 381.557 159.614,379.840 162.332,379.667 163.555 C 379.605 163.996,379.410 164.530,379.234 164.741 C 379.058 164.953,378.842 165.528,378.752 166.020 C 378.551 167.130,376.401 171.177,375.353 172.420 C 374.925 172.928,373.883 174.059,373.036 174.935 C 372.190 175.810,371.498 176.671,371.498 176.846 C 371.498 177.022,371.331 177.166,371.127 177.166 C 370.923 177.166,370.450 177.469,370.075 177.838 C 368.916 178.981,367.218 179.921,364.857 180.727 C 363.611 181.152,362.431 181.689,362.235 181.919 C 362.039 182.150,361.784 182.243,361.668 182.127 C 361.552 182.011,361.457 182.073,361.457 182.266 C 361.457 182.458,361.202 182.574,360.891 182.524 C 360.579 182.473,360.059 182.569,359.736 182.737 C 359.413 182.904,358.830 183.112,358.441 183.199 C 358.051 183.287,357.587 183.399,357.409 183.450 C 357.231 183.501,356.648 183.650,356.113 183.782 C 355.579 183.914,354.923 184.104,354.656 184.205 C 354.389 184.306,353.879 184.428,353.522 184.476 C 353.166 184.524,352.510 184.658,352.065 184.773 C 351.619 184.889,350.872 185.027,350.403 185.080 C 349.934 185.134,349.388 185.278,349.190 185.401 C 348.711 185.697,347.685 185.908,345.911 186.078 C 345.109 186.155,343.697 186.424,342.773 186.678 C 341.848 186.931,341.014 187.059,340.918 186.964 C 340.823 186.868,340.559 186.944,340.332 187.133 C 339.646 187.701,339.553 187.709,338.997 187.248 C 338.703 187.003,338.462 186.943,338.462 187.113 C 338.462 187.283,338.279 187.438,338.057 187.457 C 336.923 187.552,334.298 187.897,333.441 188.064 C 332.907 188.167,332.015 188.288,331.460 188.331 C 330.905 188.375,330.322 188.480,330.165 188.565 C 329.922 188.696,328.402 188.683,327.732 188.544 C 327.620 188.521,327.351 188.075,327.135 187.552 C 326.173 185.230,321.387 181.377,319.466 181.377 C 319.068 181.377,318.673 181.264,318.588 181.126 C 317.630 179.576,309.167 181.878,306.755 184.345 C 306.291 184.820,305.491 185.641,304.978 186.170 C 304.465 186.699,304.135 187.278,304.246 187.456 C 304.356 187.635,304.206 187.980,303.913 188.222 C 303.619 188.465,303.146 189.183,302.861 189.818 C 302.284 191.106,302.773 191.000,296.437 191.220 C 293.248 191.331,293.115 191.308,293.058 190.647 C 292.899 188.824,292.922 188.312,293.178 187.975 C 293.336 187.766,293.297 187.209,293.088 186.679 C 292.886 186.168,292.692 185.530,292.656 185.263 C 292.620 184.996,292.487 184.267,292.360 183.644 C 292.232 183.020,292.067 182.073,291.992 181.538 C 291.794 180.137,289.580 174.109,289.215 173.981 C 289.045 173.922,288.907 173.588,288.907 173.239 C 288.907 172.890,288.758 172.428,288.577 172.213 C 287.352 170.760,286.959 170.232,286.923 169.991 C 286.901 169.840,286.864 169.559,286.842 169.367 C 286.820 169.174,286.575 168.846,286.298 168.638 C 286.022 168.430,285.301 167.530,284.698 166.640 C 284.094 165.749,283.337 164.830,283.015 164.597 C 282.693 164.364,282.429 163.995,282.429 163.776 C 282.429 163.557,281.971 163.108,281.410 162.777 C 280.850 162.446,279.825 161.625,279.132 160.952 C 277.907 159.763,271.364 155.465,271.272 155.789 C 271.247 155.879,270.829 155.691,270.343 155.372 C 269.856 155.054,269.280 154.828,269.061 154.871 C 268.843 154.914,268.198 154.701,267.629 154.398 C 267.059 154.095,266.330 153.796,266.009 153.733 C 265.688 153.671,265.170 153.525,264.858 153.409 C 264.547 153.293,264.036 153.103,263.725 152.988 C 262.927 152.691,262.374 152.578,260.891 152.411 C 260.178 152.330,258.939 152.179,258.138 152.074 C 255.255 151.698,253.188 151.632,251.683 151.870 C 250.841 152.003,249.872 152.011,249.529 151.887 C 249.187 151.763,248.543 151.833,248.097 152.043 C 247.652 152.252,246.777 152.416,246.154 152.406 C 245.530 152.397,244.929 152.514,244.817 152.668 C 244.705 152.821,244.187 152.983,243.665 153.028 C 243.143 153.072,242.360 153.310,241.925 153.557 C 241.490 153.803,240.988 154.013,240.810 154.022 C 240.632 154.031,240.177 154.208,239.800 154.417 C 239.422 154.625,239.044 154.726,238.960 154.641 C 238.875 154.557,238.438 154.828,237.989 155.245 C 237.539 155.661,236.940 155.968,236.657 155.927 C 236.374 155.885,235.744 156.193,235.257 156.612 C 234.771 157.030,234.263 157.304,234.129 157.221 C 233.994 157.138,233.621 157.347,233.299 157.684 C 232.976 158.022,232.231 158.543,231.643 158.842 C 230.165 159.594,223.158 166.127,223.158 166.753 C 223.158 166.878,222.717 167.487,222.179 168.106 C 221.640 168.725,221.059 169.405,220.888 169.617 C 220.307 170.337,218.623 173.842,218.623 174.332 C 218.623 174.600,218.398 175.006,218.123 175.235 C 217.848 175.463,217.693 175.835,217.780 176.061 C 217.866 176.286,217.724 176.648,217.463 176.865 C 217.202 177.081,217.052 177.322,217.131 177.401 C 217.209 177.479,217.046 178.077,216.768 178.731 C 216.233 179.991,216.133 180.490,215.852 183.320 C 215.754 184.300,215.556 185.885,215.410 186.843 C 215.265 187.801,215.207 189.696,215.282 191.053 C 215.357 192.411,215.451 194.279,215.491 195.204 C 215.531 196.129,215.669 196.992,215.798 197.120 C 215.927 197.249,216.039 198.096,216.047 199.001 C 216.054 199.907,216.265 201.221,216.515 201.922 C 217.079 203.507,216.952 203.717,215.451 203.684 C 213.230 203.636,207.308 203.998,206.977 204.202 C 206.678 204.387,205.615 203.453,204.366 201.906 C 203.647 201.015,202.753 199.026,202.753 198.315 C 202.753 197.977,202.626 197.562,202.471 197.393 C 202.107 196.996,201.752 193.822,202.039 193.534 C 202.160 193.414,202.277 192.851,202.299 192.285 C 202.321 191.719,202.418 190.964,202.516 190.607 C 202.613 190.251,202.799 189.522,202.929 188.988 C 203.060 188.453,203.280 187.870,203.418 187.692 C 203.556 187.514,203.673 187.255,203.678 187.116 C 203.712 186.090,207.471 179.751,209.015 178.118 C 209.446 177.662,210.023 176.855,210.297 176.325 C 210.571 175.795,211.172 175.160,211.632 174.914 C 212.093 174.667,212.470 174.351,212.470 174.212 C 212.470 174.072,212.948 173.478,213.532 172.890 C 215.945 170.464,217.959 166.826,218.825 163.328 C 219.469 160.731,219.749 155.923,219.275 155.630 C 219.095 155.518,218.947 155.138,218.947 154.785 C 218.947 154.432,218.656 153.830,218.300 153.448 C 217.943 153.065,217.652 152.492,217.652 152.174 C 217.652 151.856,217.215 151.369,216.680 151.093 C 216.146 150.817,215.709 150.471,215.709 150.325 C 215.709 150.044,209.199 145.870,208.913 145.968 C 208.821 146.000,208.271 145.733,207.692 145.375 C 207.113 145.017,206.640 144.827,206.640 144.953 C 206.640 145.078,206.457 145.044,206.235 144.878 C 206.012 144.712,205.611 144.594,205.344 144.617 C 205.077 144.640,204.494 144.477,204.049 144.254 C 203.603 144.031,202.802 143.741,202.267 143.610 C 200.991 143.298,200.825 143.251,200.729 143.174 C 200.650 143.112,200.214 143.019,198.543 142.708 C 198.097 142.626,197.733 142.536,197.733 142.509 C 197.733 142.393,196.336 142.142,195.142 142.043 C 194.429 141.985,193.449 141.832,192.965 141.705 C 192.480 141.577,191.605 141.424,191.021 141.363 C 190.437 141.303,189.231 141.164,188.340 141.054 C 187.449 140.943,186.400 140.860,186.008 140.867 C 185.616 140.875,185.205 140.735,185.095 140.557 C 184.985 140.378,184.772 140.308,184.622 140.401 C 184.000 140.785,180.613 140.559,180.157 140.103 C 180.068 140.014,179.743 140.077,179.433 140.243 C 179.124 140.409,178.775 140.448,178.657 140.330 C 178.540 140.213,175.827 140.083,172.628 140.041 C 169.430 139.999,166.675 139.879,166.506 139.774 C 166.337 139.670,166.130 139.696,166.045 139.833 C 165.856 140.138,158.635 140.114,158.136 139.806 C 157.939 139.684,157.705 139.702,157.616 139.845 C 157.528 139.989,156.315 140.064,154.922 140.013 C 151.244 139.877,149.937 139.895,149.629 140.085 C 149.479 140.178,149.266 140.106,149.155 139.927 C 149.044 139.747,148.385 139.655,147.692 139.723 C 146.998 139.790,146.348 139.762,146.246 139.661 C 146.145 139.559,144.969 139.443,143.634 139.402 C 142.299 139.361,140.589 139.229,139.834 139.109 C 139.079 138.989,138.243 138.892,137.976 138.892 C 137.709 138.893,137.271 138.813,137.004 138.715 C 136.737 138.617,136.081 138.503,135.547 138.462 C 135.012 138.421,134.575 138.355,134.575 138.314 C 134.575 138.274,133.992 138.205,133.279 138.162 C 132.567 138.119,131.765 137.993,131.498 137.883 C 131.231 137.772,130.224 137.601,129.262 137.503 C 128.299 137.405,127.328 137.172,127.104 136.986 C 126.820 136.751,126.631 136.756,126.478 137.004 C 126.335 137.235,126.127 137.250,125.882 137.047 C 125.675 136.876,125.396 136.729,125.260 136.722 C 124.653 136.689,122.545 136.288,122.105 136.123 C 121.838 136.022,121.401 135.919,121.134 135.895 C 120.325 135.821,118.089 135.347,117.571 135.140 C 117.304 135.033,116.721 134.925,116.275 134.900 C 115.830 134.876,115.149 134.684,114.762 134.475 C 114.376 134.265,113.501 134.008,112.819 133.902 C 112.137 133.797,111.452 133.589,111.297 133.439 C 111.141 133.290,110.825 133.241,110.593 133.330 C 110.362 133.418,109.833 133.303,109.418 133.073 C 109.003 132.843,108.591 132.637,108.502 132.617 C 107.838 132.461,106.323 132.069,105.989 131.966 C 105.764 131.896,105.472 131.821,105.341 131.799 C 105.209 131.776,104.810 131.597,104.453 131.401 C 104.097 131.205,103.514 130.999,103.158 130.943 C 102.802 130.888,102.291 130.750,102.024 130.636 C 101.757 130.522,101.247 130.378,100.891 130.315 C 100.534 130.252,99.951 130.069,99.595 129.907 C 98.304 129.322,97.747 129.132,96.307 128.789 C 95.745 128.655,94.731 128.262,94.052 127.916 C 93.374 127.570,92.626 127.287,92.390 127.287 C 92.154 127.287,91.602 127.052,91.163 126.764 C 90.724 126.477,90.364 126.334,90.364 126.448 C 90.364 126.562,90.036 126.440,89.636 126.177 C 89.235 125.914,88.799 125.688,88.668 125.674 C 88.537 125.660,87.746 125.356,86.911 124.998 C 86.076 124.640,85.215 124.415,84.998 124.498 C 84.781 124.581,84.301 124.328,83.932 123.935 C 82.953 122.893,81.619 122.852,81.619 123.863 M237.085 138.939 C 237.085 139.296,239.008 140.371,239.237 140.142 C 239.416 139.963,237.765 138.623,237.365 138.623 C 237.211 138.623,237.085 138.765,237.085 138.939 M244.534 143.402 C 244.534 143.581,244.753 143.908,245.020 144.130 C 245.291 144.354,245.506 144.390,245.506 144.209 C 245.506 144.031,245.287 143.704,245.020 143.482 C 244.749 143.257,244.534 143.222,244.534 143.402 M251.576 147.081 C 251.797 147.307,252.161 147.531,252.385 147.580 C 253.692 147.863,254.771 148.233,255.623 148.688 C 256.340 149.070,257.814 149.078,257.814 148.699 C 257.814 148.453,257.195 148.199,255.709 147.836 C 255.530 147.792,254.947 147.572,254.413 147.347 C 252.959 146.733,251.062 146.556,251.576 147.081 " stroke="none" fill="#000000" fill-rule="evenodd"></path></g></svg>